<?xml version="1.0" encoding="UTF-8" standalone="no"?>
<!DOCTYPE svg PUBLIC "-//W3C//DTD SVG 1.1//EN"
 "http://www.w3.org/Graphics/SVG/1.1/DTD/svg11.dtd">
<!-- Generated by graphviz version 10.0.1 (20240210.2158)
 -->
<!-- Title: G Pages: 1 -->
<svg width="200pt" height="217pt"
 viewBox="0.00 0.00 199.50 217.00" xmlns="http://www.w3.org/2000/svg" xmlns:xlink="http://www.w3.org/1999/xlink">
<g id="graph0" class="graph" transform="scale(1 1) rotate(0) translate(4 213)">
<title>G</title>
<polygon fill="white" stroke="none" points="-4,4 -4,-213 195.5,-213 195.5,4 -4,4"/>
<!-- 0x100404080 -->
<g id="node1" class="node">
<title>0x100404080</title>
<polygon fill="none" stroke="black" points="0,-159.5 0,-208.5 86.5,-208.5 86.5,-159.5 0,-159.5"/>
<text text-anchor="middle" x="43.25" y="-191.2" font-family="Times,serif" font-size="14.00">n1</text>
<polyline fill="none" stroke="black" points="0,-184 86.5,-184"/>
<text text-anchor="middle" x="43.25" y="-166.7" font-family="Times,serif" font-size="14.00">value 1.0000</text>
</g>
<!-- 0x1004040e0add -->
<g id="node4" class="node">
<title>0x1004040e0add</title>
<polygon fill="none" stroke="black" points="68.25,-86.5 68.25,-122.5 122.25,-122.5 122.25,-86.5 68.25,-86.5"/>
<text text-anchor="middle" x="95" y="-99.45" font-family="Times,serif" font-size="14.00">add</text>
</g>
<!-- 0x100404080&#45;&gt;0x1004040e0add -->
<g id="edge2" class="edge">
<title>0x100404080&#45;&gt;0x1004040e0add</title>
<path fill="none" stroke="black" d="M59.13,-159.33C64.86,-150.79 71.37,-141.09 77.26,-132.31"/>
<polygon fill="black" stroke="black" points="80.08,-134.39 82.74,-124.14 74.27,-130.49 80.08,-134.39"/>
</g>
<!-- 0x1004040b0 -->
<g id="node2" class="node">
<title>0x1004040b0</title>
<polygon fill="none" stroke="black" points="105,-159.5 105,-208.5 191.5,-208.5 191.5,-159.5 105,-159.5"/>
<text text-anchor="middle" x="148.25" y="-191.2" font-family="Times,serif" font-size="14.00">n2</text>
<polyline fill="none" stroke="black" points="105,-184 191.5,-184"/>
<text text-anchor="middle" x="148.25" y="-166.7" font-family="Times,serif" font-size="14.00">value 2.0000</text>
</g>
<!-- 0x1004040b0&#45;&gt;0x1004040e0add -->
<g id="edge3" class="edge">
<title>0x1004040b0&#45;&gt;0x1004040e0add</title>
<path fill="none" stroke="black" d="M132.06,-159.33C126.22,-150.79 119.59,-141.09 113.58,-132.31"/>
<polygon fill="black" stroke="black" points="116.52,-130.41 107.99,-124.13 110.75,-134.36 116.52,-130.41"/>
</g>
<!-- 0x1004040e0 -->
<g id="node3" class="node">
<title>0x1004040e0</title>
<polygon fill="none" stroke="black" points="52,-0.5 52,-49.5 138.5,-49.5 138.5,-0.5 52,-0.5"/>
<text text-anchor="middle" x="95.25" y="-32.2" font-family="Times,serif" font-size="14.00">n3</text>
<polyline fill="none" stroke="black" points="52,-25 138.5,-25"/>
<text text-anchor="middle" x="95.25" y="-7.7" font-family="Times,serif" font-size="14.00">value 3.0000</text>
</g>
<!-- 0x1004040e0add&#45;&gt;0x1004040e0 -->
<g id="edge1" class="edge">
<title>0x1004040e0add&#45;&gt;0x1004040e0</title>
<path fill="none" stroke="black" d="M95.25,-86.3C95.25,-78.94 95.25,-70.06 95.25,-61.41"/>
<polygon fill="black" stroke="black" points="98.75,-61.42 95.25,-51.42 91.75,-61.42 98.75,-61.42"/>
</g>
</g>
</svg>
